<mxfile host="app.diagrams.net" modified="2021-01-10T00:20:53.666Z" agent="5.0 (Windows NT 10.0; Win64; x64) AppleWebKit/537.36 (KHTML, like Gecko) Chrome/87.0.4280.88 Safari/537.36" etag="pB_an9Ogoa1Y9YHk0Y8W" version="14.1.5" type="github">
  <diagram name="Page-1" id="52a04d89-c75d-2922-d76d-85b35f80e030">
    <mxGraphModel dx="1047" dy="393" grid="1" gridSize="10" guides="1" tooltips="1" connect="1" arrows="1" fold="1" page="1" pageScale="1" pageWidth="1100" pageHeight="850" background="#ffffff" math="0" shadow="0">
      <root>
        <mxCell id="0" />
        <mxCell id="1" parent="0" />
        <mxCell id="8lTnBMHiqbSL49WIvVCS-71" style="edgeStyle=orthogonalEdgeStyle;rounded=0;orthogonalLoop=1;jettySize=auto;html=1;exitX=0.5;exitY=0;exitDx=0;exitDy=0;entryX=0.436;entryY=0.017;entryDx=0;entryDy=0;entryPerimeter=0;" edge="1" parent="1" source="8lTnBMHiqbSL49WIvVCS-2" target="8lTnBMHiqbSL49WIvVCS-4">
          <mxGeometry relative="1" as="geometry" />
        </mxCell>
        <mxCell id="8lTnBMHiqbSL49WIvVCS-2" value="user start app" style="ellipse;whiteSpace=wrap;html=1;direction=west;" vertex="1" parent="1">
          <mxGeometry x="180" y="44.5" width="60" height="57" as="geometry" />
        </mxCell>
        <mxCell id="8lTnBMHiqbSL49WIvVCS-25" value="" style="edgeStyle=orthogonalEdgeStyle;rounded=0;orthogonalLoop=1;jettySize=auto;html=1;" edge="1" parent="1" source="8lTnBMHiqbSL49WIvVCS-4" target="8lTnBMHiqbSL49WIvVCS-5">
          <mxGeometry relative="1" as="geometry" />
        </mxCell>
        <mxCell id="8lTnBMHiqbSL49WIvVCS-4" value="print welcome&lt;br&gt;greeting input" style="shape=hexagon;perimeter=hexagonPerimeter2;whiteSpace=wrap;html=1;fixedSize=1;" vertex="1" parent="1">
          <mxGeometry x="160" y="140" width="120" height="40" as="geometry" />
        </mxCell>
        <mxCell id="8lTnBMHiqbSL49WIvVCS-27" value="" style="edgeStyle=orthogonalEdgeStyle;rounded=0;orthogonalLoop=1;jettySize=auto;html=1;" edge="1" parent="1" source="8lTnBMHiqbSL49WIvVCS-5" target="8lTnBMHiqbSL49WIvVCS-26">
          <mxGeometry relative="1" as="geometry" />
        </mxCell>
        <mxCell id="8lTnBMHiqbSL49WIvVCS-32" style="edgeStyle=orthogonalEdgeStyle;rounded=0;orthogonalLoop=1;jettySize=auto;html=1;entryX=0.5;entryY=0;entryDx=0;entryDy=0;" edge="1" parent="1" source="8lTnBMHiqbSL49WIvVCS-5" target="8lTnBMHiqbSL49WIvVCS-18">
          <mxGeometry relative="1" as="geometry" />
        </mxCell>
        <mxCell id="8lTnBMHiqbSL49WIvVCS-5" value="menu" style="rhombus;whiteSpace=wrap;html=1;" vertex="1" parent="1">
          <mxGeometry x="320" y="135" width="80" height="50" as="geometry" />
        </mxCell>
        <mxCell id="8lTnBMHiqbSL49WIvVCS-36" style="edgeStyle=orthogonalEdgeStyle;rounded=0;orthogonalLoop=1;jettySize=auto;html=1;entryX=0;entryY=0.5;entryDx=0;entryDy=0;" edge="1" parent="1" source="8lTnBMHiqbSL49WIvVCS-6" target="8lTnBMHiqbSL49WIvVCS-8">
          <mxGeometry relative="1" as="geometry" />
        </mxCell>
        <mxCell id="8lTnBMHiqbSL49WIvVCS-6" value="films list" style="shape=hexagon;perimeter=hexagonPerimeter2;whiteSpace=wrap;html=1;fixedSize=1;" vertex="1" parent="1">
          <mxGeometry x="465" y="135" width="80" height="50" as="geometry" />
        </mxCell>
        <mxCell id="8lTnBMHiqbSL49WIvVCS-37" style="edgeStyle=orthogonalEdgeStyle;rounded=0;orthogonalLoop=1;jettySize=auto;html=1;exitX=0.5;exitY=1;exitDx=0;exitDy=0;entryX=0.5;entryY=0;entryDx=0;entryDy=0;" edge="1" parent="1" source="8lTnBMHiqbSL49WIvVCS-8" target="8lTnBMHiqbSL49WIvVCS-17">
          <mxGeometry relative="1" as="geometry" />
        </mxCell>
        <mxCell id="8lTnBMHiqbSL49WIvVCS-8" value="film details" style="rounded=1;whiteSpace=wrap;html=1;arcSize=8;" vertex="1" parent="1">
          <mxGeometry x="610" y="140" width="70" height="40" as="geometry" />
        </mxCell>
        <mxCell id="8lTnBMHiqbSL49WIvVCS-39" style="edgeStyle=orthogonalEdgeStyle;rounded=0;orthogonalLoop=1;jettySize=auto;html=1;entryX=0;entryY=0.5;entryDx=0;entryDy=0;" edge="1" parent="1" source="8lTnBMHiqbSL49WIvVCS-11" target="8lTnBMHiqbSL49WIvVCS-12">
          <mxGeometry relative="1" as="geometry" />
        </mxCell>
        <mxCell id="8lTnBMHiqbSL49WIvVCS-11" value="print the&lt;br&gt;detail" style="shape=hexagon;perimeter=hexagonPerimeter2;whiteSpace=wrap;html=1;fixedSize=1;" vertex="1" parent="1">
          <mxGeometry x="720" y="132" width="80" height="50" as="geometry" />
        </mxCell>
        <mxCell id="8lTnBMHiqbSL49WIvVCS-42" style="edgeStyle=orthogonalEdgeStyle;rounded=0;orthogonalLoop=1;jettySize=auto;html=1;entryX=0;entryY=0.5;entryDx=0;entryDy=0;" edge="1" parent="1" source="8lTnBMHiqbSL49WIvVCS-12" target="8lTnBMHiqbSL49WIvVCS-13">
          <mxGeometry relative="1" as="geometry" />
        </mxCell>
        <mxCell id="8lTnBMHiqbSL49WIvVCS-52" style="edgeStyle=orthogonalEdgeStyle;rounded=0;orthogonalLoop=1;jettySize=auto;html=1;exitX=0.5;exitY=0;exitDx=0;exitDy=0;entryX=0;entryY=0.5;entryDx=0;entryDy=0;entryPerimeter=0;" edge="1" parent="1" source="8lTnBMHiqbSL49WIvVCS-12" target="8lTnBMHiqbSL49WIvVCS-73">
          <mxGeometry relative="1" as="geometry">
            <mxPoint x="510" y="80" as="targetPoint" />
            <Array as="points">
              <mxPoint x="890" y="80" />
            </Array>
          </mxGeometry>
        </mxCell>
        <mxCell id="8lTnBMHiqbSL49WIvVCS-12" value="user input&lt;br&gt;for next action" style="shape=trapezoid;perimeter=trapezoidPerimeter;whiteSpace=wrap;html=1;fixedSize=1;" vertex="1" parent="1">
          <mxGeometry x="840" y="137" width="100" height="40" as="geometry" />
        </mxCell>
        <mxCell id="8lTnBMHiqbSL49WIvVCS-13" value="program exit" style="ellipse;whiteSpace=wrap;html=1;" vertex="1" parent="1">
          <mxGeometry x="980" y="140" width="70" height="34" as="geometry" />
        </mxCell>
        <mxCell id="8lTnBMHiqbSL49WIvVCS-14" style="edgeStyle=orthogonalEdgeStyle;rounded=0;orthogonalLoop=1;jettySize=auto;html=1;exitX=0.5;exitY=1;exitDx=0;exitDy=0;" edge="1" parent="1" source="8lTnBMHiqbSL49WIvVCS-13" target="8lTnBMHiqbSL49WIvVCS-13">
          <mxGeometry relative="1" as="geometry" />
        </mxCell>
        <mxCell id="8lTnBMHiqbSL49WIvVCS-34" style="edgeStyle=orthogonalEdgeStyle;rounded=0;orthogonalLoop=1;jettySize=auto;html=1;exitX=0.5;exitY=0;exitDx=0;exitDy=0;entryX=0.5;entryY=1;entryDx=0;entryDy=0;" edge="1" parent="1" source="8lTnBMHiqbSL49WIvVCS-16" target="8lTnBMHiqbSL49WIvVCS-6">
          <mxGeometry relative="1" as="geometry" />
        </mxCell>
        <mxCell id="8lTnBMHiqbSL49WIvVCS-16" value="film selection&lt;br&gt;objects are created &amp;amp; stored" style="shape=trapezoid;perimeter=trapezoidPerimeter;whiteSpace=wrap;html=1;fixedSize=1;" vertex="1" parent="1">
          <mxGeometry x="450" y="240" width="110" height="40" as="geometry" />
        </mxCell>
        <mxCell id="8lTnBMHiqbSL49WIvVCS-38" style="edgeStyle=orthogonalEdgeStyle;rounded=0;orthogonalLoop=1;jettySize=auto;html=1;entryX=0.5;entryY=1;entryDx=0;entryDy=0;" edge="1" parent="1" source="8lTnBMHiqbSL49WIvVCS-17" target="8lTnBMHiqbSL49WIvVCS-11">
          <mxGeometry relative="1" as="geometry" />
        </mxCell>
        <mxCell id="8lTnBMHiqbSL49WIvVCS-17" value="retrieve the&lt;br&gt;flow detail" style="rounded=0;whiteSpace=wrap;html=1;" vertex="1" parent="1">
          <mxGeometry x="600" y="240" width="80" height="40" as="geometry" />
        </mxCell>
        <mxCell id="8lTnBMHiqbSL49WIvVCS-33" style="edgeStyle=orthogonalEdgeStyle;rounded=0;orthogonalLoop=1;jettySize=auto;html=1;entryX=0.5;entryY=1;entryDx=0;entryDy=0;" edge="1" parent="1" source="8lTnBMHiqbSL49WIvVCS-18" target="8lTnBMHiqbSL49WIvVCS-16">
          <mxGeometry relative="1" as="geometry" />
        </mxCell>
        <mxCell id="8lTnBMHiqbSL49WIvVCS-18" value="get data from&lt;br&gt;swapi web site" style="rounded=0;whiteSpace=wrap;html=1;" vertex="1" parent="1">
          <mxGeometry x="310" y="340" width="100" height="40" as="geometry" />
        </mxCell>
        <mxCell id="8lTnBMHiqbSL49WIvVCS-20" value="CLI class" style="rounded=1;whiteSpace=wrap;html=1;" vertex="1" parent="1">
          <mxGeometry x="40" y="141.5" width="60" height="37" as="geometry" />
        </mxCell>
        <mxCell id="8lTnBMHiqbSL49WIvVCS-21" value="Film class" style="rounded=1;whiteSpace=wrap;html=1;" vertex="1" parent="1">
          <mxGeometry x="40" y="245" width="60" height="30" as="geometry" />
        </mxCell>
        <mxCell id="8lTnBMHiqbSL49WIvVCS-22" value="API class" style="rounded=1;whiteSpace=wrap;html=1;" vertex="1" parent="1">
          <mxGeometry x="40" y="345" width="60" height="30" as="geometry" />
        </mxCell>
        <mxCell id="8lTnBMHiqbSL49WIvVCS-57" style="edgeStyle=orthogonalEdgeStyle;rounded=0;orthogonalLoop=1;jettySize=auto;html=1;entryX=0;entryY=0.5;entryDx=0;entryDy=0;" edge="1" parent="1" source="8lTnBMHiqbSL49WIvVCS-26" target="8lTnBMHiqbSL49WIvVCS-6">
          <mxGeometry relative="1" as="geometry">
            <mxPoint x="440" y="160" as="targetPoint" />
            <Array as="points">
              <mxPoint x="440" y="73" />
              <mxPoint x="440" y="160" />
            </Array>
          </mxGeometry>
        </mxCell>
        <mxCell id="8lTnBMHiqbSL49WIvVCS-26" value="user decides" style="rhombus;whiteSpace=wrap;html=1;" vertex="1" parent="1">
          <mxGeometry x="325" y="50" width="70" height="46" as="geometry" />
        </mxCell>
        <mxCell id="8lTnBMHiqbSL49WIvVCS-65" value="" style="line;strokeWidth=2;direction=south;html=1;" vertex="1" parent="1">
          <mxGeometry x="115" y="115" width="10" height="290" as="geometry" />
        </mxCell>
        <mxCell id="8lTnBMHiqbSL49WIvVCS-68" value="" style="line;strokeWidth=2;html=1;" vertex="1" parent="1">
          <mxGeometry x="30" y="200" width="930" height="10" as="geometry" />
        </mxCell>
        <mxCell id="8lTnBMHiqbSL49WIvVCS-69" value="" style="line;strokeWidth=2;html=1;" vertex="1" parent="1">
          <mxGeometry x="30" y="320" width="930" height="10" as="geometry" />
        </mxCell>
        <mxCell id="8lTnBMHiqbSL49WIvVCS-70" value="" style="line;strokeWidth=2;html=1;" vertex="1" parent="1">
          <mxGeometry x="30" y="400" width="930" height="10" as="geometry" />
        </mxCell>
        <mxCell id="8lTnBMHiqbSL49WIvVCS-72" value="" style="line;strokeWidth=2;html=1;" vertex="1" parent="1">
          <mxGeometry x="20" y="110" width="940" height="10" as="geometry" />
        </mxCell>
        <mxCell id="8lTnBMHiqbSL49WIvVCS-73" value="" style="line;strokeWidth=2;direction=south;html=1;" vertex="1" parent="1">
          <mxGeometry x="500" y="80" width="10" height="55" as="geometry" />
        </mxCell>
      </root>
    </mxGraphModel>
  </diagram>
</mxfile>
